<?xml version="1.0" standalone="no"?>
<!DOCTYPE svg PUBLIC "-//W3C//DTD SVG 20010904//EN"
 "http://www.w3.org/TR/2001/REC-SVG-20010904/DTD/svg10.dtd">
<svg version="1.0" xmlns="http://www.w3.org/2000/svg"
 width="256.000000pt" height="249.000000pt" viewBox="0 0 256.000000 249.000000"
 preserveAspectRatio="xMidYMid meet">

<g transform="translate(0.000000,249.000000) scale(0.100000,-0.100000)"
fill="#000000" stroke="none">
<path d="M1 1893 l1 -598 18 109 c46 275 164 508 355 701 193 195 413 310 700
364 l100 19 -587 1 -588 1 1 -597z"/>
<path d="M1490 2469 c542 -96 946 -492 1050 -1029 l18 -95 1 573 1 572 -587
-1 -588 -1 105 -19z"/>
<path d="M603 1924 c-21 -50 -29 -199 -14 -260 11 -43 10 -47 -19 -84 -132
-167 -129 -501 7 -698 83 -121 216 -192 426 -227 43 -7 43 -8 18 -43 -16 -23
-33 -68 -47 -120 -6 -23 -74 -43 -144 -43 -100 0 -153 29 -225 126 -68 93
-117 127 -190 133 -84 7 -84 -14 2 -96 52 -49 81 -88 111 -148 49 -96 92 -137
164 -159 46 -14 161 -19 246 -12 22 2 23 0 28 -123 5 -117 4 -126 -16 -147
l-21 -23 350 0 350 0 -15 27 c-11 22 -14 76 -14 244 0 230 -7 279 -50 339 -12
17 -20 33 -18 36 3 2 41 11 84 18 246 44 399 174 459 391 25 94 31 266 10 344
-18 70 -49 137 -88 189 -22 29 -24 37 -15 75 15 63 5 225 -16 266 -18 33 -18
34 -73 27 -65 -8 -133 -35 -223 -89 -63 -38 -67 -39 -110 -28 -162 40 -416 39
-552 -1 -34 -10 -41 -8 -105 29 -99 57 -169 84 -229 90 l-54 6 -17 -39z"/>
<path d="M1 1274 c0 -11 3 -14 6 -6 3 7 2 16 -1 19 -3 4 -6 -2 -5 -13z"/>
<path d="M2 1145 c0 -16 2 -22 5 -12 2 9 2 23 0 30 -3 6 -5 -1 -5 -18z"/>
<path d="M0 557 l0 -557 433 1 c380 0 428 2 402 14 -16 8 -64 30 -105 49 -365
167 -646 541 -706 941 -8 55 -17 101 -20 104 -2 2 -4 -246 -4 -552z"/>
<path d="M2547 1027 c-8 -63 -41 -197 -63 -252 -131 -330 -368 -586 -664 -720
-129 -58 -155 -54 313 -54 l427 -1 0 540 c0 297 -2 540 -4 540 -2 0 -6 -24 -9
-53z"/>
</g>
</svg>
