<?xml version="1.0" standalone="no"?>
<!DOCTYPE svg PUBLIC "-//W3C//DTD SVG 20010904//EN"
 "http://www.w3.org/TR/2001/REC-SVG-20010904/DTD/svg10.dtd">
<svg version="1.0" xmlns="http://www.w3.org/2000/svg"
 width="256.000000pt" height="256.000000pt" viewBox="0 0 256.000000 256.000000"
 preserveAspectRatio="xMidYMid meet">

<g transform="translate(0.000000,256.000000) scale(0.100000,-0.100000)"
fill="#000000" stroke="none">
<path d="M1 2153 c1 -288 4 -378 10 -306 17 223 82 376 215 505 74 72 155 120
253 152 98 32 126 37 241 46 61 5 -50 8 -312 9 l-408 1 1 -407z"/>
<path d="M1847 2549 c223 -17 376 -82 505 -215 72 -74 120 -155 152 -253 32
-98 37 -126 46 -241 5 -61 8 50 9 313 l1 407 -407 -1 c-288 -1 -378 -4 -306
-10z"/>
<path d="M745 2320 c-122 -10 -182 -24 -258 -62 -123 -61 -199 -169 -234 -328
-16 -77 -18 -140 -18 -650 0 -506 2 -574 18 -648 46 -216 163 -333 377 -379
77 -16 140 -18 650 -18 620 0 662 3 788 63 73 34 161 121 194 192 59 125 63
170 63 790 0 510 -2 573 -18 650 -35 159 -119 276 -240 334 -115 54 -159 58
-712 61 -280 2 -555 0 -610 -5z m1298 -226 c33 -18 63 -63 72 -111 8 -42 -26
-117 -66 -146 -71 -51 -180 -22 -220 59 -39 82 -12 159 72 202 48 25 88 23
142 -4z m-564 -189 c101 -32 182 -82 262 -162 80 -78 130 -160 166 -268 22
-67 26 -98 26 -195 0 -97 -4 -128 -26 -195 -67 -206 -226 -364 -434 -432 -112
-37 -274 -37 -386 0 -208 68 -367 226 -434 432 -37 115 -37 275 0 390 34 105
83 185 163 266 100 101 227 167 364 189 82 13 213 2 299 -25z"/>
<path d="M1201 1699 c-173 -34 -311 -177 -342 -357 -31 -172 73 -367 235 -443
128 -60 244 -60 372 0 162 76 266 271 235 443 -32 184 -169 323 -350 358 -61
11 -88 11 -150 -1z"/>
<path d="M2 408 l-2 -408 408 2 c224 1 385 3 357 5 -256 16 -398 69 -535 200
-145 138 -206 290 -223 558 -2 28 -4 -133 -5 -357z"/>
<path d="M2550 748 c0 -136 -43 -299 -106 -404 -45 -75 -149 -180 -220 -224
-107 -65 -246 -101 -429 -113 -27 -2 133 -4 358 -5 l407 -2 0 405 c0 223 -2
405 -5 405 -3 0 -5 -28 -5 -62z"/>
</g>
</svg>
