<?xml version="1.0" standalone="no"?>
<!DOCTYPE svg PUBLIC "-//W3C//DTD SVG 20010904//EN"
 "http://www.w3.org/TR/2001/REC-SVG-20010904/DTD/svg10.dtd">
<svg version="1.0" xmlns="http://www.w3.org/2000/svg"
 width="254.000000pt" height="256.000000pt" viewBox="0 0 254.000000 256.000000"
 preserveAspectRatio="xMidYMid meet">

<g transform="translate(0.000000,256.000000) scale(0.100000,-0.100000)"
fill="#000000" stroke="none">
<path d="M0 1280 l0 -1280 1270 0 1270 0 -1 578 c0 331 -4 568 -9 557 -5 -11
-9 -32 -9 -46 -1 -14 -10 -61 -22 -104 -93 -356 -332 -651 -658 -814 -173 -87
-343 -125 -561 -125 -200 0 -344 31 -518 111 l-73 33 -157 -41 c-147 -39 -215
-58 -402 -108 -96 -26 -123 -27 -116 -3 2 9 18 69 35 132 17 63 35 129 40 145
5 17 21 77 36 135 15 58 33 125 41 149 20 64 18 92 -16 164 -141 304 -157 659
-43 962 134 358 431 648 778 759 165 53 210 60 395 59 198 0 275 -12 430 -70
313 -117 553 -330 700 -622 43 -86 95 -249 109 -341 7 -41 14 -76 16 -79 3 -2
5 251 5 562 l0 567 -1270 0 -1270 0 0 -1280z"/>
<path d="M1215 2304 c-267 -31 -420 -95 -602 -252 -149 -128 -271 -333 -321
-537 -26 -109 -23 -373 7 -480 24 -89 71 -196 114 -265 32 -51 33 -40 -24
-247 -21 -79 -39 -150 -39 -158 0 -19 24 -19 81 -1 24 8 99 29 165 47 l121 32
114 -55 c104 -51 140 -63 291 -97 138 -32 397 1 558 70 262 112 467 330 558
594 74 214 71 487 -8 699 -83 219 -276 433 -486 539 -162 81 -383 127 -529
111z m-271 -463 c37 -25 80 -88 107 -159 41 -108 35 -154 -31 -237 -23 -28
-30 -46 -25 -63 9 -36 100 -155 158 -208 95 -85 244 -169 284 -159 13 3 38 29
57 60 48 73 73 89 140 83 60 -5 178 -68 229 -121 82 -88 -23 -248 -193 -292
-54 -14 -74 -15 -129 -5 -197 35 -403 150 -571 319 -185 185 -290 375 -290
524 0 81 21 143 67 197 68 79 137 100 197 61z"/>
</g>
</svg>
